# xmcd
#
# Track frame offsets: 
#        180
#        29655
#        52509
#        73989
#        96155
#        102430
#        121465
#        139107
#        162418
#        179305
#        201374
#        230505
#        250384
#        272560
#        289423
#        299948
#
# Disc length: 4333 seconds
#
# Revision: 0
# Processed by: cddbd v1.4PL0 Copyright (c) Steve Scherf et al.
# Submitted via: ExactAudioCopy v0.90b4
#
DISCID=0510eb10
DTITLE=Eagles - Hotel Califonia (1-8) and The Long Run (9-16)
DYEAR=1900
DGENRE=Ballad
TTITLE0=Hotel California
TTITLE1=New Kid In Town
TTITLE2=Life In The Fast Lane
TTITLE3=Wasted Time
TTITLE4=Wasted Time (Reprise)
TTITLE5=Victim Of Love
TTITLE6=Pretty Maids All In A Row
TTITLE7=Try And Love Again
TTITLE8=The Long Run
TTITLE9=I Can't Tell You Why
TTITLE10=King Of Hollywood
TTITLE11=Heartache Tonight
TTITLE12=Those Shoes
TTITLE13=Teenage Jail
TTITLE14=The Greeks Don't Want No Freaks
TTITLE15=The Sad Cafe
EXTD=
EXTT0=
EXTT1=
EXTT2=
EXTT3=
EXTT4=
EXTT5=
EXTT6=
EXTT7=
EXTT8=
EXTT9=
EXTT10=
EXTT11=
EXTT12=
EXTT13=
EXTT14=
EXTT15=
PLAYORDER=
